HIERARCHY
ROOT Pelvis
{
	OFFSET 0.000000 0.000000 0.000000
	CHANNELS 6 Xposition Yposition Zposition Xrotation Yrotation Zrotation
	JOINT LeftUpLeg_virtual
	{
		OFFSET 0.000000 0.000000 0.000000
		CHANNELS 3 Xrotation Yrotation Zrotation
		JOINT LeftUpLeg
		{
			OFFSET 18.735201 -5.666702 -4.541200
			CHANNELS 3 Xrotation Yrotation Zrotation
			JOINT LeftLeg
			{
				OFFSET -0.021200 -31.938179 0.493100
				CHANNELS 3 Xrotation Yrotation Zrotation
				JOINT LeftFoot
				{
					OFFSET 0.021200 -31.938179 -4.336299
					CHANNELS 3 Xrotation Yrotation Zrotation
					JOINT LeftToeBase
					{
						OFFSET 0.943001 -26.722000 15.023500
						CHANNELS 3 Xrotation Yrotation Zrotation
						End Site
						{
							OFFSET 0 0 0
						}
					}
				}
			}
		}
	}
	JOINT RightUpLeg_virtual
	{
		OFFSET 0.000000 0.000000 0.000000
		CHANNELS 3 Xrotation Yrotation Zrotation
		JOINT RightUpLeg
		{
			OFFSET -18.735201 -5.666702 -4.541200
			CHANNELS 3 Xrotation Yrotation Zrotation
			JOINT RightLeg
			{
				OFFSET 0.018946 -31.938133 0.493100
				CHANNELS 3 Xrotation Yrotation Zrotation
				JOINT RightFoot
				{
					OFFSET -0.018946 -31.938126 -4.336299
					CHANNELS 3 Xrotation Yrotation Zrotation
					JOINT RightToeBase
					{
						OFFSET -0.943001 -26.722004 15.023500
						CHANNELS 3 Xrotation Yrotation Zrotation
						End Site
						{
							OFFSET 0 0 0
						}
					}
				}
			}
		}
	}
	JOINT Hips_virtual
	{
		OFFSET 0.000000 0.000000 0.000000
		CHANNELS 3 Xrotation Yrotation Zrotation
		JOINT Hips
		{
			OFFSET -0.000000 -0.000000 -0.000000
			CHANNELS 3 Xrotation Yrotation Zrotation
			JOINT Spine
			{
				OFFSET 0.000000 10.199997 -0.299500
				CHANNELS 3 Xrotation Yrotation Zrotation
				JOINT Spine1
				{
					OFFSET 0.000000 11.900002 -1.516600
					CHANNELS 3 Xrotation Yrotation Zrotation
					JOINT Spine2
					{
						OFFSET 0.000000 13.600006 -2.842500
						CHANNELS 3 Xrotation Yrotation Zrotation
						JOINT Neck_virtual
						{
							OFFSET 0.000000 0.000000 0.000000
							CHANNELS 3 Xrotation Yrotation Zrotation
							JOINT Neck
							{
								OFFSET 0.000000 9.624100 -2.890100
								CHANNELS 3 Xrotation Yrotation Zrotation
								JOINT Head
								{
									OFFSET 0.000000 14.068802 -1.351900
									CHANNELS 3 Xrotation Yrotation Zrotation
									End Site
									{
										OFFSET 0 0 0
									}
								}
							}
						}
						JOINT LeftShoulder_virtual
						{
							OFFSET 0.000000 0.000000 0.000000
							CHANNELS 3 Xrotation Yrotation Zrotation
							JOINT LeftShoulder
							{
								OFFSET 15.263000 10.923401 -0.547700
								CHANNELS 3 Xrotation Yrotation Zrotation
								JOINT LeftArm
								{
									OFFSET 25.438599 -2.830597 -13.032500
									CHANNELS 3 Xrotation Yrotation Zrotation
									JOINT LeftForeArm
									{
										OFFSET 29.960503 0.000000 0.000000
										CHANNELS 3 Xrotation Yrotation Zrotation
										JOINT LeftHand
										{
											OFFSET 27.849251 0.000000 0.000000
											CHANNELS 3 Xrotation Yrotation Zrotation
											End Site
											{
												OFFSET 0 0 0
											}
										}
									}
								}
							}
						}
						JOINT RightShoulder_virtual
						{
							OFFSET 0.000000 0.000000 0.000000
							CHANNELS 3 Xrotation Yrotation Zrotation
							JOINT RightShoulder
							{
								OFFSET -15.263000 10.923401 -0.547700
								CHANNELS 3 Xrotation Yrotation Zrotation
								JOINT RightArm
								{
									OFFSET -25.438599 -2.830597 -13.032500
									CHANNELS 3 Xrotation Yrotation Zrotation
									JOINT RightForeArm
									{
										OFFSET -29.960503 0.000000 0.000000
										CHANNELS 3 Xrotation Yrotation Zrotation
										JOINT RightHand
										{
											OFFSET -27.849251 0.000000 0.000000
											CHANNELS 3 Xrotation Yrotation Zrotation
											End Site
											{
												OFFSET 0 0 0
											}
										}
									}
								}
							}
						}
					}
				}
			}
		}
	}
}
MOTION
Frames: 6
Frame Time: 0.03333333
-107.101440 78.423836 -2.535820 0.000000 0.000000 0.000000 5.533778 -58.202938 2.662762 -51.245554 -27.367419 21.548318 42.838065 -4.959800 -9.588839 6.914990 -0.276793 -23.888237 0.000000 0.000000 0.000000 5.533778 -58.202938 2.662762 -56.671872 6.770178 -16.347318 92.868177 11.129099 -6.439180 -17.868873 -6.366531 17.987551 0.000000 0.000000 0.000000 5.533778 -58.202938 2.662762 0.000000 -0.000001 0.000000 15.964230 1.393353 -4.202465 15.662370 2.194510 -5.768866 0.000000 0.000000 0.000000 15.861033 2.321220 -5.742684 -2.693305 4.804493 0.823318 0.000000 0.000000 0.000000 15.861033 2.321220 -5.742684 -0.592716 -13.563760 6.823838 -37.598409 23.788792 -23.345655 0.137189 -73.842425 0.102623 0.000000 0.000000 0.000000 15.861033 2.321220 -5.742684 -2.118357 13.247528 13.753737 -38.399071 -0.958081 39.774186 -28.487438 69.501874 26.985603 0.000000 0.000000 0.000000 
-108.293327 78.706200 -2.327080 0.000000 0.000000 0.000000 4.064902 -58.540260 1.411097 -49.413987 -27.031584 22.512326 43.763139 -5.707768 -9.871470 5.043948 0.112113 -23.804328 0.000000 0.000000 0.000000 4.064902 -58.540260 1.411097 -54.833609 6.241760 -16.769644 89.845927 7.337019 -6.786511 -21.750754 -7.944656 15.553645 0.000000 0.000000 0.000000 4.064902 -58.540260 1.411097 0.000000 -0.000003 0.000000 15.894118 1.234048 -4.180460 15.476321 1.900095 -5.988030 0.000000 0.000000 0.000000 15.663101 2.020899 -5.953933 -2.850936 4.981203 0.642943 0.000000 0.000000 0.000000 15.663101 2.020899 -5.953933 -1.370440 -14.343337 3.032925 -38.279621 22.614263 -23.089898 0.142163 -75.187829 0.108046 0.000000 0.000000 0.000000 15.663101 2.020899 -5.953933 -2.145712 13.116407 13.287849 -38.908500 -2.796950 41.271152 -29.448637 71.167313 28.159239 0.000000 0.000000 0.000000 
-109.494019 78.866241 -2.208691 0.000000 0.000000 0.000000 2.641135 -58.769611 0.276714 -47.744662 -26.549391 23.472575 44.538308 -6.605252 -10.137579 3.332374 0.471951 -23.741690 0.000000 0.000000 0.000000 2.641135 -58.769611 0.276714 -52.765858 5.709021 -17.414484 85.801540 4.275797 -7.232586 -24.057912 -9.110112 15.010454 0.000000 0.000000 0.000000 2.641135 -58.769611 0.276714 0.000000 0.000000 0.000000 15.819369 1.069814 -4.160549 15.281052 1.631128 -6.174523 0.000000 0.000000 0.000000 15.452412 1.743125 -6.133693 -3.026251 5.125552 0.462924 0.000000 0.000000 0.000000 15.452412 1.743125 -6.133693 -2.134505 -14.889222 -0.321572 -38.090841 21.313445 -23.421122 0.143822 -75.859667 0.109824 0.000000 0.000000 0.000000 15.452412 1.743125 -6.133693 -2.213431 12.977068 12.820912 -38.520296 -3.822280 41.682295 -30.279711 72.721912 29.181662 0.000000 0.000000 0.000000 
-110.756721 78.689964 -2.250803 0.000000 0.000000 0.000000 1.289074 -58.910914 -0.686164 -46.523287 -26.129187 24.492440 45.679568 -7.837749 -10.490287 1.534322 0.884728 -23.784684 0.000000 0.000000 0.000000 1.289074 -58.910914 -0.686164 -50.910345 5.627144 -18.635678 80.021062 3.577129 -7.649972 -22.105030 -8.796904 17.577217 0.000000 0.000000 0.000000 1.289074 -58.910914 -0.686164 0.000000 -0.000003 0.000000 15.740133 0.894630 -4.183508 15.077537 1.383983 -6.329468 0.000000 0.000000 0.000000 15.230644 1.483826 -6.284082 -3.238416 5.244642 0.284151 0.000000 0.000000 0.000000 15.230644 1.483826 -6.284082 -2.761764 -14.973151 -2.599937 -36.570653 20.101428 -24.497433 0.136278 -75.533573 0.102109 0.000000 0.000000 0.000000 15.230644 1.483826 -6.284082 -2.248351 12.848359 12.353125 -38.156268 -4.801568 41.733221 -31.405667 74.337375 30.490484 0.000000 0.000000 0.000000 
-112.061531 78.228073 -2.364281 0.000000 0.000000 0.000000 0.031871 -58.979196 -1.499874 -45.888476 -25.817128 25.520725 47.205965 -9.603647 -10.969478 -0.134065 1.321916 -23.773015 0.000000 0.000000 0.000000 0.031871 -58.979196 -1.499874 -49.028027 5.565317 -20.267410 73.040691 4.132501 -8.002891 -18.350020 -7.498574 21.620662 0.000000 0.000000 0.000000 0.031871 -58.979196 -1.499874 0.000000 0.000003 0.000000 15.655326 0.718147 -4.218017 14.866515 1.154946 -6.453888 0.000000 0.000000 0.000000 14.999283 1.239165 -6.407296 -3.416510 5.333546 0.122791 0.000000 0.000000 0.000000 14.999283 1.239165 -6.407296 -3.369808 -14.971780 -4.713512 -34.656516 18.672679 -25.510709 0.075789 -74.779172 0.043150 0.000000 0.000000 0.000000 14.999283 1.239165 -6.407296 -2.345967 12.708596 11.887823 -38.023192 -6.050300 41.672955 -33.425286 76.161022 32.694394 0.000000 0.000000 0.000000 
-113.323410 77.680328 -2.545773 0.000000 0.000000 0.000000 -1.109666 -58.980992 -2.175710 -46.047841 -25.475608 26.106008 49.696559 -11.462691 -11.593041 -2.290261 1.731667 -22.154507 0.000000 0.000000 0.000000 -1.109666 -58.980992 -2.175710 -47.373588 5.156117 -21.749373 67.207251 5.197232 -8.228068 -15.040684 -6.020572 25.135914 0.000000 0.000000 0.000000 -1.109666 -58.980992 -2.175710 0.000000 -0.000002 0.000000 15.564203 0.537908 -4.243562 14.648678 0.940599 -6.548944 0.000000 0.000000 0.000000 14.759643 1.005226 -6.505467 -3.590484 5.402470 -0.021546 0.000000 0.000000 0.000000 14.759643 1.005226 -6.505467 -3.875381 -14.733592 -6.388212 -32.396649 17.142755 -26.782492 0.064624 -73.756030 0.031886 0.000000 0.000000 0.000000 14.759643 1.005226 -6.505467 -2.562941 12.547528 11.427064 -37.994088 -7.390276 41.287080 -37.119828 78.099894 36.563092 0.000000 0.000000 0.000000 
